<svg data-v-423bf9ae="" xmlns="http://www.w3.org/2000/svg" viewBox="0 0 369.14600082026817 60" class="font"><!----><!----><!----><g data-v-423bf9ae="" id="a233c480-4007-4790-ac0b-f26113aa0672" fill="white" transform="matrix(5.577908720429519,0,0,5.577908720429519,-6.247251454459558,-0.35296799372652643)"><path d="M7.04 9.70L7.04 9.70L2.06 9.70L2.06 0.81C2.06 0.56 1.85 0.35 1.60 0.35C1.33 0.35 1.12 0.56 1.12 0.81L1.12 10.18C1.12 10.43 1.33 10.64 1.60 10.64L7.04 10.64C7.31 10.64 7.50 10.43 7.50 10.18C7.50 9.91 7.31 9.70 7.04 9.70ZM3.00 0.81L3.00 0.81L3.00 8.30C3.00 8.55 3.21 8.76 3.46 8.76L7.04 8.76C7.31 8.76 7.50 8.55 7.50 8.30C7.50 8.04 7.31 7.83 7.04 7.83L3.93 7.83L3.93 0.81C3.93 0.56 3.72 0.35 3.46 0.35C3.21 0.35 3.00 0.56 3.00 0.81ZM11.93 7.84L11.93 7.84L13.29 7.84C13.55 7.84 13.78 7.63 13.78 7.36C13.78 7.29 13.76 7.24 13.73 7.18L13.05 5.50C12.95 5.28 12.68 5.17 12.43 5.26C12.21 5.35 12.10 5.63 12.18 5.87L12.60 6.90L11.93 6.90C11.68 6.90 11.47 7.10 11.47 7.36C11.47 7.63 11.68 7.84 11.93 7.84ZM11.24 10.26L11.24 10.26L11.48 9.72L13.75 9.72L13.97 10.26C14.07 10.51 14.35 10.61 14.59 10.53C14.83 10.42 14.92 10.15 14.84 9.91L14.50 9.10C14.45 8.92 14.27 8.76 14.06 8.76L11.16 8.76L11.16 8.76C10.99 8.76 10.81 8.89 10.72 9.06L10.39 9.91C10.29 10.15 10.40 10.42 10.64 10.53C10.89 10.61 11.16 10.50 11.24 10.26ZM9.24 10.26L9.24 10.26L12.61 1.76L15.99 10.26C16.09 10.50 16.37 10.61 16.60 10.53C16.84 10.42 16.95 10.15 16.86 9.91L13.05 0.36C13.01 0.25 12.92 0.14 12.78 0.10C12.56 0 12.28 0.11 12.18 0.36L8.36 9.91C8.27 10.15 8.40 10.42 8.62 10.53C8.86 10.61 9.13 10.50 9.24 10.26ZM29.16 0.56L29.16 0.56C28.50 0.29 27.80 0.15 27.09 0.15C23.56 0.15 21.81 2.81 21.83 5.47C21.84 8.09 23.60 10.71 27.09 10.71C27.80 10.71 28.50 10.57 29.16 10.30C29.72 10.08 29.37 9.21 28.80 9.45C28.25 9.66 27.69 9.79 27.09 9.79C24.22 9.79 22.75 7.64 22.74 5.45C22.74 2.98 24.53 1.08 27.05 1.08C27.65 1.08 28.24 1.19 28.80 1.43C29.37 1.65 29.72 0.80 29.16 0.56ZM28.52 7.50L28.52 7.50C28.04 7.77 27.52 7.88 27.03 7.87C25.83 7.83 24.75 6.99 24.75 5.45C24.75 3.26 26.89 2.46 28.52 3.36C29.05 3.67 29.50 2.84 28.95 2.56C26.68 1.29 23.83 2.56 23.83 5.45C23.83 7.52 25.34 8.78 27.05 8.81C27.69 8.82 28.35 8.67 28.95 8.32C29.50 8.02 29.05 7.22 28.52 7.50ZM41.20 3.88L41.20 3.88C40.85 2.77 40.15 1.83 39.24 1.16C38.33 0.52 37.24 0.14 36.04 0.14C28.94 0.14 28.94 10.82 36.04 10.82C37.24 10.82 38.33 10.43 39.24 9.79C40.15 9.13 40.85 8.18 41.20 7.08C41.27 6.83 41.15 6.55 40.89 6.48C40.64 6.41 40.36 6.54 40.29 6.79C40.00 7.70 39.44 8.47 38.67 9.02C37.94 9.55 37.03 9.86 36.04 9.86C30.20 9.86 30.20 1.09 36.04 1.09C37.03 1.09 37.94 1.41 38.67 1.93C39.44 2.49 40.00 3.26 40.29 4.16C40.36 4.41 40.64 4.55 40.89 4.47C41.15 4.40 41.27 4.13 41.20 3.88ZM33.15 7.17L33.15 7.17C33.45 7.69 33.87 8.12 34.37 8.43C34.87 8.71 35.45 8.88 36.04 8.88C36.97 8.88 37.81 8.50 38.43 7.87C39.02 7.25 39.40 6.41 39.40 5.47C39.40 4.54 39.02 3.70 38.43 3.08C37.81 2.46 36.97 2.09 36.04 2.09C35.45 2.09 34.87 2.24 34.37 2.53C33.87 2.83 33.45 3.26 33.15 3.78C33.01 4.02 33.10 4.31 33.32 4.44C33.56 4.56 33.84 4.48 33.96 4.24C34.19 3.88 34.50 3.57 34.86 3.36C35.21 3.15 35.60 3.04 36.04 3.04C36.71 3.04 37.31 3.32 37.73 3.75C38.18 4.19 38.44 4.80 38.44 5.47C38.44 6.16 38.18 6.78 37.73 7.21C37.31 7.66 36.71 7.92 36.04 7.92C35.60 7.92 35.20 7.80 34.86 7.59C34.50 7.39 34.19 7.07 33.96 6.71C33.84 6.47 33.56 6.40 33.32 6.52C33.10 6.66 33.01 6.93 33.15 7.17ZM46.37 8.78L46.37 8.78C48.29 8.78 49.56 7.34 49.56 5.49C49.56 3.65 48.29 2.21 46.37 2.21L45.44 2.21C45.19 2.21 44.98 2.42 44.98 2.69L44.98 6.43C44.98 6.69 45.19 6.90 45.44 6.90C45.71 6.90 45.91 6.69 45.91 6.43L45.91 3.15L46.37 3.15C47.75 3.15 48.64 4.17 48.64 5.49C48.64 6.82 47.75 7.84 46.37 7.84L45.44 7.84C45.19 7.84 44.98 8.05 44.98 8.30C44.98 8.57 45.19 8.78 45.44 8.78ZM44.04 10.18L44.04 10.18L44.04 1.29L46.37 1.29C48.87 1.29 50.58 3.05 50.58 5.49C50.58 7.94 48.87 9.70 46.37 9.70L45.43 9.70C45.18 9.70 44.97 9.91 44.97 10.18C44.97 10.43 45.18 10.64 45.43 10.64L46.37 10.64C49.41 10.64 51.52 8.46 51.52 5.49C51.52 2.53 49.41 0.35 46.37 0.35L43.57 0.35C43.32 0.35 43.11 0.56 43.11 0.81L43.11 10.18C43.11 10.43 43.32 10.64 43.57 10.64C43.83 10.64 44.04 10.43 44.04 10.18ZM58.70 2.23L58.70 2.23L55.73 2.23C55.47 2.23 55.26 2.42 55.26 2.69L55.26 4.56C55.26 4.82 55.47 5.03 55.73 5.03L57.83 5.03C58.10 5.03 58.31 4.82 58.31 4.56C58.31 4.30 58.10 4.09 57.83 4.09L56.20 4.09L56.20 3.15L58.70 3.15C58.97 3.15 59.18 2.94 59.18 2.69C59.18 2.42 58.97 2.23 58.70 2.23ZM57.83 5.96L57.83 5.96L55.73 5.96C55.47 5.96 55.26 6.17 55.26 6.43L55.26 8.30C55.26 8.55 55.47 8.76 55.73 8.76L58.70 8.76C58.97 8.76 59.18 8.55 59.18 8.30C59.18 8.04 58.97 7.83 58.70 7.83L56.20 7.83L56.20 6.90L57.83 6.90C58.10 6.90 58.31 6.69 58.31 6.43C58.31 6.17 58.10 5.96 57.83 5.96ZM58.70 9.70L58.70 9.70L54.33 9.70L54.33 1.29L58.70 1.29C58.97 1.29 59.18 1.08 59.18 0.81C59.18 0.56 58.97 0.35 58.70 0.35L53.86 0.35C53.61 0.35 53.40 0.56 53.40 0.81L53.40 10.18C53.40 10.43 53.61 10.64 53.86 10.64L58.70 10.64C58.97 10.64 59.18 10.43 59.18 10.18C59.18 9.91 58.97 9.70 58.70 9.70ZM66.30 0.71L66.30 0.71C65.32 0.38 64.64 0.27 63.80 0.31C60.91 0.45 59.68 3.99 61.71 5.77C63.01 6.90 64.40 6.79 64.46 7.45C64.54 8.15 62.65 8.01 61.57 7.22C61.08 6.87 60.54 7.63 61.03 7.98C61.95 8.65 63.08 8.88 63.99 8.82C64.75 8.76 65.44 8.19 65.39 7.41C65.30 5.92 63.56 6.16 62.34 5.07C61.33 4.20 61.53 2.73 62.29 1.93C63.21 0.91 64.72 1.15 65.98 1.60C66.57 1.81 66.88 0.91 66.30 0.71ZM60.84 9.97L60.84 9.97C61.39 10.26 61.94 10.44 62.41 10.54C65.03 11.17 67.30 9.97 67.30 7.41C67.30 4.80 64.23 4.24 63.71 3.85C63.25 3.49 63.62 2.62 65.73 3.47C66.30 3.71 66.64 2.84 66.09 2.62C62.61 1.20 62.02 3.68 63.14 4.56C63.85 5.14 66.37 5.49 66.37 7.41C66.37 10.00 63.45 10.29 61.29 9.14C60.75 8.86 60.31 9.69 60.84 9.97ZM63.91 7.90L63.91 7.90L63.91 7.90L63.91 7.90Z"></path></g><!----><!----></svg>